<mxfile host="app.diagrams.net" modified="2022-09-28T16:00:17.986Z" agent="5.0 (Macintosh; Intel Mac OS X 10_15_7) AppleWebKit/537.36 (KHTML, like Gecko) Chrome/105.0.0.0 Safari/537.36" etag="b-VtoeCcUYsN46KixcaE" version="20.3.7" type="github">
  <diagram id="R2lEEEUBdFMjLlhIrx00" name="Page-1">
    <mxGraphModel dx="339" dy="527" grid="1" gridSize="10" guides="1" tooltips="1" connect="1" arrows="1" fold="1" page="1" pageScale="1" pageWidth="850" pageHeight="1100" math="0" shadow="0" extFonts="Permanent Marker^https://fonts.googleapis.com/css?family=Permanent+Marker">
      <root>
        <mxCell id="0" />
        <mxCell id="1" parent="0" />
        <mxCell id="C-vyLk0tnHw3VtMMgP7b-12" value="" style="edgeStyle=entityRelationEdgeStyle;endArrow=ERzeroToMany;startArrow=ERone;endFill=1;startFill=0;" parent="1" edge="1">
          <mxGeometry width="100" height="100" relative="1" as="geometry">
            <mxPoint x="700" y="165" as="sourcePoint" />
            <mxPoint x="700" y="355" as="targetPoint" />
          </mxGeometry>
        </mxCell>
        <mxCell id="_5IXm_gvs5wTtdo6rBD0-5" style="edgeStyle=orthogonalEdgeStyle;rounded=0;orthogonalLoop=1;jettySize=auto;html=1;exitX=1;exitY=0.5;exitDx=0;exitDy=0;entryX=0;entryY=0.5;entryDx=0;entryDy=0;endArrow=ERmany;endFill=0;startArrow=classic;startFill=1;" edge="1" parent="1" source="_5IXm_gvs5wTtdo6rBD0-1" target="_5IXm_gvs5wTtdo6rBD0-2">
          <mxGeometry relative="1" as="geometry" />
        </mxCell>
        <mxCell id="_5IXm_gvs5wTtdo6rBD0-6" style="edgeStyle=orthogonalEdgeStyle;rounded=0;orthogonalLoop=1;jettySize=auto;html=1;startArrow=classic;startFill=1;endArrow=ERmany;endFill=0;entryX=0.5;entryY=1;entryDx=0;entryDy=0;exitX=0.5;exitY=0;exitDx=0;exitDy=0;exitPerimeter=0;" edge="1" parent="1" source="_5IXm_gvs5wTtdo6rBD0-3" target="_5IXm_gvs5wTtdo6rBD0-7">
          <mxGeometry relative="1" as="geometry">
            <mxPoint x="180" y="330" as="sourcePoint" />
          </mxGeometry>
        </mxCell>
        <mxCell id="_5IXm_gvs5wTtdo6rBD0-8" style="edgeStyle=orthogonalEdgeStyle;rounded=0;orthogonalLoop=1;jettySize=auto;html=1;exitX=0.5;exitY=1;exitDx=0;exitDy=0;startArrow=classic;startFill=1;endArrow=ERmany;endFill=0;" edge="1" parent="1" source="_5IXm_gvs5wTtdo6rBD0-1" target="_5IXm_gvs5wTtdo6rBD0-7">
          <mxGeometry relative="1" as="geometry" />
        </mxCell>
        <mxCell id="_5IXm_gvs5wTtdo6rBD0-1" value="CLASSROOM" style="whiteSpace=wrap;html=1;align=center;" vertex="1" parent="1">
          <mxGeometry x="110" y="110" width="100" height="40" as="geometry" />
        </mxCell>
        <mxCell id="_5IXm_gvs5wTtdo6rBD0-2" value="STUDENT" style="whiteSpace=wrap;html=1;align=center;" vertex="1" parent="1">
          <mxGeometry x="290" y="110" width="100" height="40" as="geometry" />
        </mxCell>
        <mxCell id="_5IXm_gvs5wTtdo6rBD0-3" value="INSTRUCTOR" style="whiteSpace=wrap;html=1;align=center;" vertex="1" parent="1">
          <mxGeometry x="130" y="320" width="100" height="40" as="geometry" />
        </mxCell>
        <mxCell id="_5IXm_gvs5wTtdo6rBD0-7" value="Entity" style="whiteSpace=wrap;html=1;align=center;" vertex="1" parent="1">
          <mxGeometry x="130" y="210" width="100" height="40" as="geometry" />
        </mxCell>
      </root>
    </mxGraphModel>
  </diagram>
</mxfile>
